<svg width="230" height="174" viewBox="0 0 230 174" fill="none" xmlns="http://www.w3.org/2000/svg">
<rect width="230" height="174" fill="white"/>
<path d="M110.548 37.376C110.207 40.6187 109.951 43.776 109.78 46.848C109.695 49.8347 109.652 52.1387 109.652 53.76C109.652 55.808 109.695 57.728 109.78 59.52C109.865 61.312 109.951 62.8907 110.036 64.256H107.092C106.495 58.2827 105.684 53.5893 104.66 50.176C103.636 46.6773 101.844 44.16 99.284 42.624C96.724 41.088 92.756 40.32 87.38 40.32H79.316C76.4147 40.32 74.196 40.576 72.66 41.088C71.2093 41.5147 70.228 42.496 69.716 44.032C69.204 45.4827 68.948 47.7867 68.948 50.944V114.432C68.948 117.504 69.2467 119.808 69.844 121.344C70.5267 122.88 71.8067 123.904 73.684 124.416C75.5613 124.928 78.292 125.269 81.876 125.44V128C79.6573 127.829 76.8413 127.744 73.428 127.744C70.0147 127.659 66.5587 127.616 63.06 127.616C59.732 127.616 56.6173 127.659 53.716 127.744C50.8147 127.744 48.468 127.829 46.676 128V125.44C49.5773 125.269 51.7533 124.928 53.204 124.416C54.74 123.904 55.764 122.88 56.276 121.344C56.788 119.808 57.044 117.504 57.044 114.432V50.944C57.044 47.7867 56.788 45.4827 56.276 44.032C55.764 42.496 54.74 41.472 53.204 40.96C51.7533 40.3627 49.5773 40.0213 46.676 39.936V37.376C49.8333 37.4613 53.1613 37.5467 56.66 37.632C60.1587 37.632 63.6147 37.6747 67.028 37.76C70.4413 37.76 73.5987 37.76 76.5 37.76C79.4867 37.76 81.9187 37.76 83.796 37.76C87.7213 37.76 92.1587 37.76 97.108 37.76C102.143 37.6747 106.623 37.5467 110.548 37.376ZM90.708 82.432C90.708 82.432 90.708 82.8587 90.708 83.712C90.708 84.5653 90.708 84.992 90.708 84.992H65.108C65.108 84.992 65.108 84.5653 65.108 83.712C65.108 82.8587 65.108 82.432 65.108 82.432H90.708ZM93.14 65.536C92.7987 70.4 92.628 74.112 92.628 76.672C92.7133 79.232 92.756 81.5787 92.756 83.712C92.756 85.8453 92.7987 88.192 92.884 90.752C92.9693 93.312 93.1827 97.024 93.524 101.888H90.58C90.2387 99.1573 89.812 96.512 89.3 93.952C88.8733 91.3067 87.8493 89.1733 86.228 87.552C84.692 85.8453 82.0467 84.992 78.292 84.992V82.432C81.108 82.432 83.2413 81.8773 84.692 80.768C86.228 79.5733 87.3373 78.08 88.02 76.288C88.7027 74.496 89.172 72.6613 89.428 70.784C89.684 68.8213 89.94 67.072 90.196 65.536H93.14ZM153.343 35.968C157.61 35.968 160.852 36.48 163.071 37.504C165.29 38.4427 167.252 39.5093 168.959 40.704C169.983 41.3013 170.794 41.7707 171.391 42.112C172.074 42.368 172.714 42.496 173.311 42.496C174.164 42.496 174.762 42.0267 175.103 41.088C175.53 40.1493 175.871 38.7413 176.127 36.864H179.071C178.986 38.3147 178.858 40.064 178.687 42.112C178.602 44.0747 178.516 46.72 178.431 50.048C178.431 53.2907 178.431 57.6 178.431 62.976H175.487C175.231 58.88 174.335 54.9547 172.799 51.2C171.263 47.4453 169.002 44.3733 166.015 41.984C163.114 39.5947 159.274 38.4 154.495 38.4C149.972 38.4 146.218 39.7653 143.231 42.496C140.33 45.2267 138.879 48.8107 138.879 53.248C138.879 57.088 139.86 60.3307 141.823 62.976C143.786 65.536 146.388 67.8827 149.631 70.016C152.959 72.064 156.543 74.2827 160.383 76.672C164.82 79.4027 168.746 82.1333 172.159 84.864C175.658 87.5093 178.388 90.4533 180.351 93.696C182.399 96.9387 183.423 100.864 183.423 105.472C183.423 110.933 182.186 115.456 179.711 119.04C177.236 122.624 173.951 125.312 169.855 127.104C165.759 128.896 161.236 129.792 156.287 129.792C151.764 129.792 148.18 129.28 145.535 128.256C142.89 127.232 140.628 126.165 138.751 125.056C136.874 123.861 135.423 123.264 134.399 123.264C133.546 123.264 132.906 123.733 132.479 124.672C132.138 125.611 131.839 127.019 131.583 128.896H128.639C128.81 127.104 128.895 125.013 128.895 122.624C128.98 120.149 129.023 116.949 129.023 113.024C129.108 109.099 129.151 104.149 129.151 98.176H132.095C132.436 103.296 133.375 108.075 134.911 112.512C136.532 116.949 138.964 120.533 142.207 123.264C145.535 125.909 149.93 127.232 155.391 127.232C158.207 127.232 160.852 126.677 163.327 125.568C165.887 124.373 167.978 122.539 169.599 120.064C171.22 117.504 172.031 114.219 172.031 110.208C172.031 106.709 171.178 103.68 169.471 101.12C167.85 98.4747 165.546 96.0427 162.559 93.824C159.572 91.52 156.074 89.1733 152.063 86.784C148.052 84.3093 144.298 81.792 140.799 79.232C137.3 76.672 134.484 73.728 132.351 70.4C130.303 66.9867 129.279 62.8907 129.279 58.112C129.279 53.0773 130.388 48.9387 132.607 45.696C134.911 42.368 137.898 39.936 141.567 38.4C145.236 36.7787 149.162 35.968 153.343 35.968Z" fill="#4B4A4A"/>
<g clip-path="url(#clip0_10_2)">
<rect width="187" height="33" transform="translate(21 67)" fill="white"/>
<path d="M43.5325 81.336H52.4125V82.872H43.5325V81.336ZM43.7245 90H41.9485V73.2H53.4685V74.736H43.7245V90ZM57.7416 90V77.4H59.3736V80.832L59.2056 80.232C59.5576 79.272 60.1496 78.544 60.9816 78.048C61.8136 77.536 62.8456 77.28 64.0776 77.28V78.936C64.0136 78.936 63.9496 78.936 63.8856 78.936C63.8216 78.92 63.7576 78.912 63.6936 78.912C62.3656 78.912 61.3256 79.32 60.5736 80.136C59.8216 80.936 59.4456 82.08 59.4456 83.568V90H57.7416ZM68.3869 90V77.4H70.0909V90H68.3869ZM69.2509 74.616C68.8989 74.616 68.6029 74.496 68.3629 74.256C68.1229 74.016 68.0029 73.728 68.0029 73.392C68.0029 73.056 68.1229 72.776 68.3629 72.552C68.6029 72.312 68.8989 72.192 69.2509 72.192C69.6029 72.192 69.8989 72.304 70.1389 72.528C70.3789 72.752 70.4989 73.032 70.4989 73.368C70.4989 73.72 70.3789 74.016 70.1389 74.256C69.9149 74.496 69.6189 74.616 69.2509 74.616ZM79.4163 90.12C78.3763 90.12 77.3923 89.976 76.4643 89.688C75.5363 89.384 74.8083 89.008 74.2803 88.56L75.0483 87.216C75.5603 87.6 76.2163 87.936 77.0163 88.224C77.8163 88.496 78.6563 88.632 79.5363 88.632C80.7363 88.632 81.6003 88.448 82.1283 88.08C82.6563 87.696 82.9203 87.192 82.9203 86.568C82.9203 86.104 82.7683 85.744 82.4643 85.488C82.1763 85.216 81.7923 85.016 81.3123 84.888C80.8323 84.744 80.2963 84.624 79.7043 84.528C79.1123 84.432 78.5203 84.32 77.9283 84.192C77.3523 84.064 76.8243 83.88 76.3443 83.64C75.8643 83.384 75.4723 83.04 75.1683 82.608C74.8803 82.176 74.7363 81.6 74.7363 80.88C74.7363 80.192 74.9283 79.576 75.3123 79.032C75.6963 78.488 76.2563 78.064 76.9923 77.76C77.7443 77.44 78.6563 77.28 79.7283 77.28C80.5443 77.28 81.3603 77.392 82.1763 77.616C82.9923 77.824 83.6643 78.104 84.1923 78.456L83.4483 79.824C82.8883 79.44 82.2883 79.168 81.6483 79.008C81.0083 78.832 80.3683 78.744 79.7283 78.744C78.5923 78.744 77.7523 78.944 77.2083 79.344C76.6803 79.728 76.4163 80.224 76.4163 80.832C76.4163 81.312 76.5603 81.688 76.8483 81.96C77.1523 82.232 77.5443 82.448 78.0243 82.608C78.5203 82.752 79.0563 82.872 79.6323 82.968C80.2243 83.064 80.8083 83.184 81.3843 83.328C81.9763 83.456 82.5123 83.64 82.9923 83.88C83.4883 84.104 83.8803 84.432 84.1683 84.864C84.4723 85.28 84.6243 85.832 84.6243 86.52C84.6243 87.256 84.4163 87.896 84.0003 88.44C83.6003 88.968 83.0083 89.384 82.2243 89.688C81.4563 89.976 80.5203 90.12 79.4163 90.12ZM92.335 90.12C91.295 90.12 90.311 89.976 89.383 89.688C88.455 89.384 87.727 89.008 87.199 88.56L87.967 87.216C88.479 87.6 89.135 87.936 89.935 88.224C90.735 88.496 91.575 88.632 92.455 88.632C93.655 88.632 94.519 88.448 95.047 88.08C95.575 87.696 95.839 87.192 95.839 86.568C95.839 86.104 95.687 85.744 95.383 85.488C95.095 85.216 94.711 85.016 94.231 84.888C93.751 84.744 93.215 84.624 92.623 84.528C92.031 84.432 91.439 84.32 90.847 84.192C90.271 84.064 89.743 83.88 89.263 83.64C88.783 83.384 88.391 83.04 88.087 82.608C87.799 82.176 87.655 81.6 87.655 80.88C87.655 80.192 87.847 79.576 88.231 79.032C88.615 78.488 89.175 78.064 89.911 77.76C90.663 77.44 91.575 77.28 92.647 77.28C93.463 77.28 94.279 77.392 95.095 77.616C95.911 77.824 96.583 78.104 97.111 78.456L96.367 79.824C95.807 79.44 95.207 79.168 94.567 79.008C93.927 78.832 93.287 78.744 92.647 78.744C91.511 78.744 90.671 78.944 90.127 79.344C89.599 79.728 89.335 80.224 89.335 80.832C89.335 81.312 89.479 81.688 89.767 81.96C90.071 82.232 90.463 82.448 90.943 82.608C91.439 82.752 91.975 82.872 92.551 82.968C93.143 83.064 93.727 83.184 94.303 83.328C94.895 83.456 95.431 83.64 95.911 83.88C96.407 84.104 96.799 84.432 97.087 84.864C97.391 85.28 97.543 85.832 97.543 86.52C97.543 87.256 97.335 87.896 96.919 88.44C96.519 88.968 95.927 89.384 95.143 89.688C94.375 89.976 93.439 90.12 92.335 90.12ZM112.735 90.12C111.695 90.12 110.711 89.976 109.783 89.688C108.855 89.384 108.127 89.008 107.599 88.56L108.367 87.216C108.879 87.6 109.535 87.936 110.335 88.224C111.135 88.496 111.975 88.632 112.855 88.632C114.055 88.632 114.919 88.448 115.447 88.08C115.975 87.696 116.239 87.192 116.239 86.568C116.239 86.104 116.087 85.744 115.783 85.488C115.495 85.216 115.111 85.016 114.631 84.888C114.151 84.744 113.615 84.624 113.023 84.528C112.431 84.432 111.839 84.32 111.247 84.192C110.671 84.064 110.143 83.88 109.663 83.64C109.183 83.384 108.791 83.04 108.487 82.608C108.199 82.176 108.055 81.6 108.055 80.88C108.055 80.192 108.247 79.576 108.631 79.032C109.015 78.488 109.575 78.064 110.311 77.76C111.063 77.44 111.975 77.28 113.047 77.28C113.863 77.28 114.679 77.392 115.495 77.616C116.311 77.824 116.983 78.104 117.511 78.456L116.767 79.824C116.207 79.44 115.607 79.168 114.967 79.008C114.327 78.832 113.687 78.744 113.047 78.744C111.911 78.744 111.071 78.944 110.527 79.344C109.999 79.728 109.735 80.224 109.735 80.832C109.735 81.312 109.879 81.688 110.167 81.96C110.471 82.232 110.863 82.448 111.343 82.608C111.839 82.752 112.375 82.872 112.951 82.968C113.543 83.064 114.127 83.184 114.703 83.328C115.295 83.456 115.831 83.64 116.311 83.88C116.807 84.104 117.199 84.432 117.487 84.864C117.791 85.28 117.943 85.832 117.943 86.52C117.943 87.256 117.735 87.896 117.319 88.44C116.919 88.968 116.327 89.384 115.543 89.688C114.775 89.976 113.839 90.12 112.735 90.12ZM127.502 90.12C126.254 90.12 125.134 89.848 124.142 89.304C123.166 88.744 122.398 87.984 121.838 87.024C121.278 86.048 120.998 84.936 120.998 83.688C120.998 82.424 121.278 81.312 121.838 80.352C122.398 79.392 123.166 78.64 124.142 78.096C125.134 77.552 126.254 77.28 127.502 77.28C128.574 77.28 129.542 77.488 130.406 77.904C131.27 78.32 131.95 78.944 132.446 79.776L131.174 80.64C130.742 80 130.206 79.528 129.566 79.224C128.926 78.92 128.23 78.768 127.478 78.768C126.582 78.768 125.774 78.976 125.054 79.392C124.334 79.792 123.766 80.36 123.35 81.096C122.934 81.832 122.726 82.696 122.726 83.688C122.726 84.68 122.934 85.544 123.35 86.28C123.766 87.016 124.334 87.592 125.054 88.008C125.774 88.408 126.582 88.608 127.478 88.608C128.23 88.608 128.926 88.456 129.566 88.152C130.206 87.848 130.742 87.384 131.174 86.76L132.446 87.624C131.95 88.44 131.27 89.064 130.406 89.496C129.542 89.912 128.574 90.12 127.502 90.12ZM143.238 77.28C144.262 77.28 145.158 77.48 145.926 77.88C146.71 78.264 147.318 78.856 147.75 79.656C148.198 80.456 148.422 81.464 148.422 82.68V90H146.718V82.848C146.718 81.52 146.382 80.52 145.71 79.848C145.054 79.16 144.126 78.816 142.926 78.816C142.03 78.816 141.246 79 140.574 79.368C139.918 79.72 139.406 80.24 139.038 80.928C138.686 81.6 138.51 82.416 138.51 83.376V90H136.806V72.192H138.51V80.856L138.174 80.208C138.574 79.296 139.214 78.584 140.094 78.072C140.974 77.544 142.022 77.28 143.238 77.28ZM159.36 90.12C158.144 90.12 157.048 89.848 156.072 89.304C155.112 88.744 154.352 87.984 153.792 87.024C153.232 86.048 152.952 84.936 152.952 83.688C152.952 82.424 153.232 81.312 153.792 80.352C154.352 79.392 155.112 78.64 156.072 78.096C157.032 77.552 158.128 77.28 159.36 77.28C160.608 77.28 161.712 77.552 162.672 78.096C163.648 78.64 164.408 79.392 164.952 80.352C165.512 81.312 165.792 82.424 165.792 83.688C165.792 84.936 165.512 86.048 164.952 87.024C164.408 87.984 163.648 88.744 162.672 89.304C161.696 89.848 160.592 90.12 159.36 90.12ZM159.36 88.608C160.272 88.608 161.08 88.408 161.784 88.008C162.488 87.592 163.04 87.016 163.44 86.28C163.856 85.528 164.064 84.664 164.064 83.688C164.064 82.696 163.856 81.832 163.44 81.096C163.04 80.36 162.488 79.792 161.784 79.392C161.08 78.976 160.28 78.768 159.384 78.768C158.488 78.768 157.688 78.976 156.984 79.392C156.28 79.792 155.72 80.36 155.304 81.096C154.888 81.832 154.68 82.696 154.68 83.688C154.68 84.664 154.888 85.528 155.304 86.28C155.72 87.016 156.28 87.592 156.984 88.008C157.688 88.408 158.48 88.608 159.36 88.608ZM175.607 90.12C174.391 90.12 173.295 89.848 172.319 89.304C171.359 88.744 170.599 87.984 170.039 87.024C169.479 86.048 169.199 84.936 169.199 83.688C169.199 82.424 169.479 81.312 170.039 80.352C170.599 79.392 171.359 78.64 172.319 78.096C173.279 77.552 174.375 77.28 175.607 77.28C176.855 77.28 177.959 77.552 178.919 78.096C179.895 78.64 180.655 79.392 181.199 80.352C181.759 81.312 182.039 82.424 182.039 83.688C182.039 84.936 181.759 86.048 181.199 87.024C180.655 87.984 179.895 88.744 178.919 89.304C177.943 89.848 176.839 90.12 175.607 90.12ZM175.607 88.608C176.519 88.608 177.327 88.408 178.031 88.008C178.735 87.592 179.287 87.016 179.687 86.28C180.103 85.528 180.311 84.664 180.311 83.688C180.311 82.696 180.103 81.832 179.687 81.096C179.287 80.36 178.735 79.792 178.031 79.392C177.327 78.976 176.527 78.768 175.631 78.768C174.735 78.768 173.935 78.976 173.231 79.392C172.527 79.792 171.967 80.36 171.551 81.096C171.135 81.832 170.927 82.696 170.927 83.688C170.927 84.664 171.135 85.528 171.551 86.28C171.967 87.016 172.527 87.592 173.231 88.008C173.935 88.408 174.727 88.608 175.607 88.608ZM186.718 90V72.192H188.422V90H186.718Z" fill="black"/>
</g>
<defs>
<clipPath id="clip0_10_2">
<rect width="187" height="33" fill="white" transform="translate(21 67)"/>
</clipPath>
</defs>
</svg>
